# xmcd CD database file generated by Grip 2.91
# 
# Track frame offsets:
#       183
#       12413
#       33968
#       47423
#       70150
#       84703
#       100103
#       116583
#       134138
#       150203
#       167170
#       186198
#       212383
#       242745
#       259585
#       278233
#       296760
#       318113
#       332813
# 
# Disc length: 4664 seconds
# 
# Revision: 3
# Processed by: cddbd v1.4b41PL1 Copyright (c) Steve Scherf et al.
# Submitted via: Grip 2.91
# 
DISCID=08123613
DTITLE=Alexis Korner - The Best Of Alexis Korner And Friends Blues Unlimited
DYEAR=1900
DGENRE=
TTITLE0=Woke Up This Morning
TTITLE1=Stormy Monday
TTITLE2=Jesus Is Just Alright
TTITLE3=Sunrise
TTITLE4=Hellhound On My Trail
TTITLE5=Oh Lord, Don't Let 'Em Drop That Atomic
TTITLE6=Haitian Fight Song
TTITLE7=You Don't Miss Your Water ('Till Your W
TTITLE8=Gospel Ship
TTITLE9=Daytime Song
TTITLE10=Got My Mojo Working
TTITLE11=Honesty (Live)
TTITLE12=Spoonful (Live)
TTITLE13=Captain's Tiger (Live)
TTITLE14=Mighty, Mighty, Spade and Whitey
TTITLE15=Lo and Behold
TTITLE16=Operator
TTITLE17=Louisiana Blues
TTITLE18=Casey Jones
EXTD=
EXTT0=
EXTT1=
EXTT2=
EXTT3=
EXTT4=
EXTT5=
EXTT6=
EXTT7=
EXTT8=
EXTT9=
EXTT10=
EXTT11=
EXTT12=
EXTT13=
EXTT14=
EXTT15=
EXTT16=
EXTT17=
EXTT18=
PLAYORDER=
